<svg width="49" height="15" viewBox="0 0 49 15" fill="none" xmlns="http://www.w3.org/2000/svg">
<path d="M0.786399 15V0.454545H10.7154V3.30966H4.30202V6.29261H10.0833V9.15483H4.30202V15H0.786399ZM12.4856 15V0.454545H18.4941C19.5832 0.454545 20.523 0.651041 21.3137 1.04403C22.1092 1.43229 22.7224 1.991 23.1532 2.72017C23.5841 3.4446 23.7995 4.30398 23.7995 5.2983C23.7995 6.30682 23.5794 7.16383 23.139 7.86932C22.6987 8.57008 22.0737 9.10511 21.264 9.47443C20.4544 9.83902 19.4956 10.0213 18.3876 10.0213H14.5879V7.25142H17.7342C18.2645 7.25142 18.7072 7.18276 19.0623 7.04545C19.4222 6.90341 19.6944 6.69034 19.8791 6.40625C20.0637 6.11742 20.1561 5.74811 20.1561 5.2983C20.1561 4.84848 20.0637 4.4768 19.8791 4.18324C19.6944 3.88494 19.4222 3.66241 19.0623 3.51562C18.7025 3.36411 18.2598 3.28835 17.7342 3.28835H16.0012V15H12.4856ZM20.6745 8.35227L24.2967 15H20.4615L16.9103 8.35227H20.6745ZM25.7278 15V0.454545H35.8699V3.30966H29.2434V6.29261H35.3514V9.15483H29.2434V12.1449H35.8699V15H25.7278ZM38.0716 15V0.454545H48.2136V3.30966H41.5872V6.29261H47.6951V9.15483H41.5872V12.1449H48.2136V15H38.0716Z" fill="white"/>
</svg>
