<svg width="26" height="26" viewBox="0 0 26 26" fill="none" xmlns="http://www.w3.org/2000/svg">
<circle cx="13" cy="13" r="12.5" fill="white" stroke="#DDDDDD"/>
<path d="M11.125 14.9844V16H6.31055V15.1309L8.62012 12.6357C8.861 12.3623 9.05143 12.1247 9.19141 11.9229C9.33138 11.721 9.43066 11.5387 9.48926 11.376C9.55111 11.21 9.58203 11.0521 9.58203 10.9023C9.58203 10.6842 9.54297 10.4938 9.46484 10.3311C9.38672 10.165 9.27279 10.0365 9.12305 9.94531C8.97656 9.85417 8.7959 9.80859 8.58105 9.80859C8.34342 9.80859 8.13997 9.86393 7.9707 9.97461C7.80469 10.082 7.67773 10.2318 7.58984 10.4238C7.50521 10.6159 7.46289 10.8356 7.46289 11.083H6.16895C6.16895 10.6631 6.2666 10.2806 6.46191 9.93555C6.65723 9.58724 6.93717 9.30892 7.30176 9.10059C7.66634 8.89225 8.09928 8.78809 8.60059 8.78809C9.08887 8.78809 9.50228 8.86947 9.84082 9.03223C10.1794 9.19173 10.4365 9.4196 10.6123 9.71582C10.7881 10.012 10.876 10.3652 10.876 10.7754C10.876 11.0033 10.8385 11.2279 10.7637 11.4492C10.6888 11.6706 10.583 11.8903 10.4463 12.1084C10.3128 12.3232 10.1533 12.5413 9.96777 12.7627C9.78223 12.984 9.57552 13.2103 9.34766 13.4414L7.96094 14.9844H11.125ZM13.376 11.8008V16H12.0869V10.7168H13.3027L13.376 11.8008ZM13.1855 13.168H12.79C12.79 12.8001 12.834 12.4616 12.9219 12.1523C13.013 11.8431 13.1465 11.5745 13.3223 11.3467C13.498 11.1156 13.7145 10.9365 13.9717 10.8096C14.2321 10.6826 14.5332 10.6191 14.875 10.6191C15.1126 10.6191 15.3307 10.6549 15.5293 10.7266C15.7279 10.7949 15.8988 10.904 16.042 11.0537C16.1885 11.2002 16.3008 11.3923 16.3789 11.6299C16.457 11.8643 16.4961 12.1458 16.4961 12.4746V16H15.207V12.6064C15.207 12.359 15.1712 12.1654 15.0996 12.0254C15.0312 11.8854 14.932 11.7878 14.8018 11.7324C14.6715 11.6738 14.5153 11.6445 14.333 11.6445C14.1312 11.6445 13.957 11.6852 13.8105 11.7666C13.6673 11.8447 13.5485 11.9538 13.4541 12.0938C13.363 12.2337 13.2946 12.3949 13.249 12.5771C13.2067 12.7594 13.1855 12.9564 13.1855 13.168ZM16.3984 12.9287L15.8662 13.0264C15.8695 12.6943 15.915 12.3835 16.0029 12.0938C16.0908 11.8008 16.2194 11.5452 16.3887 11.3271C16.5612 11.1058 16.7744 10.9333 17.0283 10.8096C17.2855 10.6826 17.5817 10.6191 17.917 10.6191C18.1774 10.6191 18.4118 10.6566 18.6201 10.7314C18.8317 10.8031 19.0124 10.9186 19.1621 11.0781C19.3118 11.2344 19.4258 11.4378 19.5039 11.6885C19.5853 11.9391 19.626 12.2451 19.626 12.6064V16H18.3271V12.6016C18.3271 12.3444 18.2913 12.1475 18.2197 12.0107C18.1514 11.874 18.0521 11.7796 17.9219 11.7275C17.7917 11.6722 17.6387 11.6445 17.4629 11.6445C17.2839 11.6445 17.1276 11.6787 16.9941 11.7471C16.8639 11.8122 16.7533 11.9033 16.6621 12.0205C16.5742 12.1377 16.5075 12.2744 16.4619 12.4307C16.4196 12.5837 16.3984 12.7497 16.3984 12.9287Z" fill="#787878"/>
</svg>
