<svg width="276" height="155" viewBox="0 0 276 155" fill="none" xmlns="http://www.w3.org/2000/svg">
<g clip-path="url(#clip0_26_43)">
<path d="M51.79 109.71C51.42 120.99 50.61 134.01 58.57 142.81C67.08 151.2 79.93 154.59 91.96 154.65C101.81 154.46 109.04 150.54 118.57 148.78C123.82 147.78 129.18 147.75 135.48 147.82C145.59 147.87 153.92 147.71 162.9 150.48C175.62 154.96 185.96 157.2 199.13 151.51C207.66 147.98 216.39 143.57 219.64 134.38C223.07 122.93 221.68 109.84 221.26 98.22C220.61 90.62 221.75 84.76 230.04 84.87C237.51 85.13 246.57 87.25 253.49 83.32C263.41 77.5 268.81 62.73 273.53 52.42C278.3 42.13 274.57 33.64 264.52 28.57C255.37 23.87 245.84 18.95 235.95 15.76C203.51 5.30999 178.52 0.869992 149 0.0499919C122.54 -0.280008 95.73 0.989992 69.41 3.70999C51.38 5.16999 32.27 8.81999 14.61 13.47C-0.5 16.6 0.3 20.45 0 33.72C0.3 46.7 0.49 60.96 2.92 73.65C7.48 90.89 34.42 75.63 46.41 78.41C56.57 81.17 51.95 100.96 51.79 109.5V109.71Z" fill="white"/>
<path d="M146.13 70.96H157.95L154.13 64.82L147.67 67.74L146.13 70.96Z" fill="#9C9B9B"/>
<path d="M144.44 71.97L142.15 75.03L143.3 78.67L161.22 94.31L171.75 97.49L199.85 100.84L203.51 100.39V96.1L198.92 94.92L191.99 93.76L185.78 92.93L180.98 91.34L177.65 91.45L172.82 91.2L163.29 86.92L158.96 83.73L156.07 80.66L155.54 76.35L150.83 76.54L144.44 71.97Z" fill="#009640"/>
<path d="M193.54 136.44C196.26 136.35 202.04 136.9 204.31 135.24C206.14 134.16 207.74 131.88 208.22 129.97C208.63 125.7 208.26 120.06 208.38 115.46C209.02 109.13 204.67 103.15 198.87 101.42C195.3 100.35 191.33 99.86 187.6 99.29C183.42 98.84 169.21 97.24 162.99 96.45C160.6 94.6 139.01 77.59 136.03 75.26C134.85 74.46 133.98 74.11 132.4 74.24C119.09 74.24 85.22 74.24 81.64 74.24C81.24 74.35 80.53 74.76 80.17 75.09C79.46 75.56 79.25 76.53 78.73 77.31C75.56 83.18 68.17 96.52 64.83 102.68C64.53 103.16 64.51 103.32 64.5 103.82C64.55 106.65 64.46 121.66 64.5 127.2C64.5 128.06 64.45 128.21 64.78 129.1C67.14 136.7 72.69 137.08 79.59 136.88L80.86 136.03" fill="#C1E5F8"/>
<path d="M193.54 136.44C196.26 136.35 202.04 136.9 204.31 135.24C206.14 134.16 207.74 131.88 208.22 129.97C208.63 125.7 208.26 120.06 208.38 115.46C209.02 109.13 204.67 103.15 198.87 101.42C195.3 100.35 191.33 99.86 187.6 99.29C183.42 98.84 169.21 97.24 162.99 96.45C160.6 94.6 139.01 77.59 136.03 75.26C134.85 74.46 133.98 74.11 132.4 74.24C119.09 74.24 85.22 74.24 81.64 74.24C81.24 74.35 80.53 74.76 80.17 75.09C79.46 75.56 79.25 76.53 78.73 77.31C75.56 83.18 68.17 96.52 64.83 102.68C64.53 103.16 64.51 103.32 64.5 103.82C64.55 106.65 64.46 121.66 64.5 127.2C64.5 128.06 64.45 128.21 64.78 129.1C67.14 136.7 72.69 137.08 79.59 136.88L80.86 136.03" stroke="#1D1D1B" stroke-width="3" stroke-miterlimit="10"/>
<path d="M94.38 75.54L86.28 98.48L162.9 98.26L157.56 94L134.66 75.94C134.39 75.64 134.02 75.48 133.63 75.48L94.38 75.54Z" fill="white"/>
<path d="M163.29 96.68C161.69 97.94 160.16 99.65 158.46 99.82C146.74 99.86 74 99.82 66.72 99.84" stroke="#1D1D1B" stroke-width="3" stroke-miterlimit="10"/>
<path d="M84.89 99.38L96.05 74.58L96.72 74.2" stroke="#1D1D1B" stroke-width="3" stroke-miterlimit="10"/>
<path d="M105.16 136.04H167.05" stroke="#1D1D1B" stroke-width="3" stroke-miterlimit="10"/>
<path d="M179.87 146.47C187.155 146.47 193.06 140.565 193.06 133.28C193.06 125.995 187.155 120.09 179.87 120.09C172.585 120.09 166.68 125.995 166.68 133.28C166.68 140.565 172.585 146.47 179.87 146.47Z" fill="white" stroke="#1D1D1B" stroke-width="3" stroke-miterlimit="10"/>
<path d="M93.42 146.47C100.478 146.47 106.2 140.748 106.2 133.69C106.2 126.632 100.478 120.91 93.42 120.91C86.3618 120.91 80.64 126.632 80.64 133.69C80.64 140.748 86.3618 146.47 93.42 146.47Z" fill="white" stroke="#1D1D1B" stroke-width="3" stroke-miterlimit="10"/>
<path d="M180.03 138.82C182.99 138.82 185.39 136.42 185.39 133.46C185.39 130.5 182.99 128.1 180.03 128.1C177.07 128.1 174.67 130.5 174.67 133.46C174.67 136.42 177.07 138.82 180.03 138.82Z" fill="#1D1D1B"/>
<path d="M93.42 138.7C96.325 138.7 98.68 136.345 98.68 133.44C98.68 130.535 96.325 128.18 93.42 128.18C90.515 128.18 88.16 130.535 88.16 133.44C88.16 136.345 90.515 138.7 93.42 138.7Z" fill="#1D1D1B"/>
<path d="M112.48 113.64H123.6C124.716 113.64 125.62 112.736 125.62 111.62C125.62 110.504 124.716 109.6 123.6 109.6H112.48C111.364 109.6 110.46 110.504 110.46 111.62C110.46 112.736 111.364 113.64 112.48 113.64Z" fill="#1D1D1B"/>
<path d="M188.46 87.5C188.02 86.98 187.95 86.47 187.32 86.46C186.47 86.44 184.75 86.44 183.94 86.73" stroke="#1D1D1B" stroke-width="2" stroke-miterlimit="10"/>
<path d="M161.15 77.45C162.9 79.03 164.44 82.28 167.18 81.94C169.19 81.62 171.94 80.37 173.64 81.73C174.51 82.44 174.66 83.78 174.01 84.7C173.53 85.39 172.68 85.66 171.9 85.87C169.48 86.44 167.02 87.23 164.56 87.31C162.34 86.97 160.76 84.96 158.95 83.72C157.92 82.77 156.49 81.94 156.06 80.66C155.48 79.08 155.51 77.29 156.47 75.87C157.45 74.04 158.87 72.75 160.93 72.53C162.8 72 164.31 73.28 166.07 73.87C168.6 74.96 172.81 77.77 175.35 78.66C177.41 79.65 179.9 80.38 181 80.56C184.51 81.14 185.7 80.85 188.84 80.72C189.91 80.62 192.24 81.21 192.69 82.03C193.87 83.79 196.03 87.99 196.51 88.71" stroke="#1D1D1B" stroke-width="2" stroke-miterlimit="10"/>
<path d="M166.05 87.17L169.06 88.96L172.83 91.2C175.62 91.57 194 94.29 200.2 95.11C200.83 95.21 201.09 95.19 201.56 95.32C201.85 95.42 202.08 95.57 202.34 95.73C202.75 95.97 203.1 96.43 203.35 96.85C203.58 97.28 203.54 98.31 203.45 98.82C203.3 99.69 202.06 100.76 201.23 100.82C198.97 101 190.81 99.59 189.68 99.59" stroke="#1D1D1B" stroke-width="2" stroke-miterlimit="10"/>
<path d="M146.5 71.36C143.51 71.81 141.61 73.65 142.3 76.55C142.92 78.67 144.59 80.36 146.06 81.95C151.55 87.95 158.18 92.6 165.12 96.68" stroke="#1D1D1B" stroke-width="2" stroke-miterlimit="10"/>
<path d="M152.13 76.66C155.267 76.66 157.81 74.117 157.81 70.98C157.81 67.843 155.267 65.3 152.13 65.3C148.993 65.3 146.45 67.843 146.45 70.98C146.45 74.117 148.993 76.66 152.13 76.66Z" stroke="#1D1D1B" stroke-width="2" stroke-miterlimit="10"/>
<path d="M161.27 77.54L160.6 78.27C160.44 78.12 160.33 77.92 160.29 77.7C160.2 77.16 160.58 76.65 161.11 76.56C161.43 76.51 161.75 76.62 161.98 76.85L161.27 77.54Z" fill="#1D1D1B"/>
<path d="M181.05 86.4471C181.174 85.7849 180.809 85.1603 180.234 85.052C179.658 84.9437 179.091 85.3927 178.966 86.0549C178.842 86.7171 179.207 87.3416 179.782 87.4499C180.358 87.5582 180.925 87.1092 181.05 86.4471Z" fill="#1D1D1B"/>
<path d="M180.17 85.01C183.37 85.48 191.43 86.68 194.52 87.14C197.08 87.55 200.19 87.52 201.76 90.08C202.84 91.62 202.33 94.06 200.77 95.08C200.11 95.46 199.11 95.79 198.38 95.67L197.2 95.59V93.84C197.44 93.84 198.72 93.92 198.88 93.89C199.15 93.83 199.59 93.65 199.85 93.49C201.02 92.28 200.36 90.71 198.65 89.92C197.92 89.63 195.72 89.42 194.2 89.24C191.14 88.86 182.99 87.87 179.83 87.49L180.17 85.01Z" fill="#1D1D1B"/>
<path d="M22 65.65C20.39 66.05 19.16 65.87 18.3 65.11C17.44 64.35 17.01 63.1 17.01 61.37V30.28C17.01 28.47 17.45 26.98 18.32 25.81C19.19 24.64 20.44 23.85 22.05 23.45C27.33 22.13 29.97 21.52 35.28 20.35C39.55 19.41 42.87 19.96 45.21 21.91C47.55 23.87 48.72 26.98 48.72 31.23C48.72 35.48 47.55 39.03 45.21 41.91C42.87 44.79 39.56 46.67 35.28 47.6C31.92 48.34 30.24 48.72 26.89 49.52V58.9C26.89 60.63 26.47 62.09 25.63 63.27C24.79 64.46 23.58 65.24 22.01 65.63L22 65.65ZM26.89 41.21C29.53 40.58 30.86 40.28 33.51 39.68C35.41 39.26 36.85 38.5 37.82 37.41C38.79 36.32 39.28 34.89 39.28 33.12C39.28 31.35 38.79 30.12 37.82 29.45C36.85 28.77 35.41 28.64 33.51 29.06C30.86 29.65 29.54 29.96 26.89 30.59V41.21Z" fill="#2EAEE5"/>
<path d="M62.05 57.59C59.99 57.92 58.16 57.8 56.57 57.23C54.98 56.66 53.74 55.74 52.86 54.46C51.98 53.18 51.53 51.62 51.53 49.77C51.53 47.65 52.04 45.88 53.05 44.48C54.06 43.08 55.69 41.91 57.95 41C60.21 40.09 63.2 39.33 66.93 38.78C68.12 38.6 68.72 38.51 69.92 38.34V43.24C68.72 43.41 68.13 43.5 66.93 43.68C65.52 43.89 64.36 44.19 63.46 44.57C62.56 44.95 61.89 45.39 61.45 45.89C61.02 46.39 60.8 47.02 60.8 47.77C60.8 48.67 61.09 49.37 61.67 49.87C62.25 50.37 63.12 50.52 64.27 50.34C65.14 50.21 65.93 49.87 66.63 49.33C67.34 48.79 67.91 48.11 68.34 47.28C68.77 46.45 68.99 45.52 68.99 44.5V37.66C68.99 36.21 68.65 35.24 67.98 34.77C67.31 34.3 66.18 34.18 64.59 34.42C63.68 34.56 62.7 34.82 61.63 35.21C60.56 35.6 59.34 36.18 57.97 36.96C56.99 37.52 56.15 37.72 55.45 37.57C54.75 37.42 54.22 37.05 53.88 36.46C53.54 35.87 53.37 35.19 53.37 34.4C53.37 33.61 53.6 32.81 54.05 31.98C54.5 31.15 55.2 30.48 56.14 29.96C57.87 28.99 59.48 28.25 60.96 27.74C62.44 27.22 63.78 26.88 64.98 26.69C67.95 26.24 70.4 26.36 72.34 27.04C74.28 27.72 75.73 28.96 76.69 30.74C77.65 32.52 78.13 34.91 78.13 37.9V49.88C78.13 51.57 77.74 52.93 76.96 53.95C76.18 54.97 75.08 55.58 73.67 55.77C72.18 55.97 71.05 55.67 70.27 54.85C69.49 54.04 69.1 52.78 69.1 51.09V49.5C69.23 49.81 69.3 49.97 69.43 50.28C69.25 51.53 68.83 52.66 68.18 53.68C67.53 54.7 66.68 55.55 65.63 56.24C64.58 56.93 63.39 57.38 62.05 57.59Z" fill="#2EAEE5"/>
<path d="M88.59 54C86.99 54.16 85.76 53.83 84.91 53C84.06 52.17 83.63 50.91 83.63 49.22V29.63C83.63 27.94 84.04 26.58 84.86 25.57C85.68 24.56 86.85 23.97 88.38 23.81C89.87 23.66 91.02 24.01 91.84 24.85C92.66 25.7 93.07 26.97 93.07 28.66C93.07 29.63 93.07 30.11 93.07 31.08C92.85 31.1 92.74 31.11 92.52 31.13C92.88 28.74 93.82 26.77 95.33 25.24C96.84 23.71 98.72 22.82 100.98 22.57C102.03 22.45 102.83 22.69 103.36 23.28C103.89 23.87 104.19 25.01 104.21 26.64C104.23 28.04 103.94 29.19 103.39 30.03C102.84 30.88 101.82 31.45 100.33 31.76C99.81 31.85 99.54 31.89 99.02 31.98C97.13 32.33 95.73 33.03 94.82 34.07C93.91 35.12 93.46 36.58 93.46 38.47C93.46 42.36 93.46 44.31 93.46 48.21C93.46 49.9 93.05 51.25 92.23 52.25C91.41 53.25 90.2 53.83 88.6 53.99L88.59 54Z" fill="#2EAEE5"/>
<path d="M112.17 52.19C110.57 52.27 109.36 51.88 108.54 51.01C107.72 50.13 107.31 48.85 107.31 47.16V15C107.31 13.31 107.72 11.98 108.54 11C109.36 10.03 110.57 9.48998 112.17 9.40998C113.7 9.32998 114.89 9.73998 115.75 10.63C116.61 11.52 117.03 12.81 117.03 14.5V33.97C117.03 33.97 117.1 33.97 117.14 33.97C119.81 30.39 121.14 28.61 123.81 25.07C124.72 23.87 125.57 22.96 126.35 22.35C127.13 21.74 128.2 21.43 129.55 21.41C130.9 21.39 131.94 21.74 132.67 22.47C133.4 23.19 133.78 24.08 133.82 25.15C133.86 26.21 133.47 27.3 132.67 28.4C129.78 32.1 128.34 33.97 125.45 37.72V34C128.67 38.31 130.27 40.49 133.49 44.86C134.29 45.96 134.62 47.03 134.47 48.07C134.32 49.11 133.86 49.96 133.08 50.61C132.3 51.27 131.3 51.6 130.1 51.61C128.64 51.63 127.47 51.37 126.6 50.81C125.72 50.26 124.87 49.36 124.03 48.13C121.27 44.57 119.9 42.8 117.14 39.28C117.1 39.28 117.07 39.28 117.03 39.28V46.65C117.03 50.19 115.41 52.02 112.17 52.19Z" fill="#2EAEE5"/>
<path d="M144.93 51.05C143.22 51.02 141.91 50.52 141.02 49.55C140.13 48.58 139.68 47.17 139.68 45.32C139.68 35.23 139.68 25.14 139.68 15.05C139.68 13.2 140.13 11.8 141.02 10.84C141.91 9.88999 143.22 9.41999 144.93 9.44999C152.37 9.57999 156.09 9.71999 163.52 10.15C164.76 10.22 165.71 10.64 166.39 11.39C167.06 12.14 167.4 13.19 167.4 14.52C167.4 15.85 167.06 16.93 166.39 17.61C165.72 18.3 164.76 18.6 163.52 18.53C157.82 18.2 154.96 18.08 149.25 17.93V25.84C154.46 25.98 157.06 26.09 162.26 26.37C163.53 26.44 164.5 26.85 165.16 27.6C165.82 28.35 166.14 29.41 166.14 30.79C166.14 32.13 165.81 33.14 165.16 33.83C164.51 34.52 163.54 34.82 162.26 34.75C157.06 34.46 154.46 34.36 149.25 34.22V42.77C154.96 42.92 157.81 43.05 163.52 43.37C164.76 43.44 165.72 43.87 166.39 44.64C167.06 45.41 167.4 46.47 167.4 47.8C167.4 49.18 167.06 50.2 166.39 50.86C165.72 51.52 164.76 51.82 163.52 51.75C156.09 51.32 152.37 51.18 144.93 51.05Z" fill="#009640"/>
<path d="M181.91 53.88C179.84 53.68 178 53.09 176.4 52.11C174.8 51.13 173.55 49.89 172.66 48.39C171.77 46.89 171.32 45.21 171.32 43.36C171.32 41.24 171.83 39.6 172.85 38.46C173.87 37.32 175.52 36.57 177.79 36.24C180.06 35.91 183.07 35.92 186.81 36.33C188.01 36.46 188.61 36.53 189.81 36.66V41.56C188.61 41.42 188.01 41.36 186.81 41.23C185.39 41.08 184.23 41.08 183.32 41.23C182.41 41.37 181.74 41.65 181.3 42.04C180.86 42.43 180.65 43 180.65 43.75C180.65 44.65 180.94 45.43 181.52 46.07C182.1 46.72 182.97 47.1 184.14 47.21C185.01 47.3 185.8 47.17 186.51 46.81C187.22 46.45 187.79 45.92 188.23 45.2C188.67 44.48 188.88 43.61 188.88 42.59V35.75C188.88 34.3 188.54 33.24 187.87 32.6C187.2 31.96 186.06 31.55 184.46 31.38C183.55 31.29 182.56 31.3 181.49 31.41C180.42 31.52 179.19 31.79 177.81 32.22C176.83 32.53 175.98 32.51 175.27 32.18C174.56 31.85 174.03 31.34 173.69 30.67C173.34 29.99 173.17 29.26 173.17 28.48C173.17 27.7 173.4 26.94 173.85 26.23C174.3 25.52 175.01 25.02 175.95 24.75C177.7 24.23 179.31 23.9 180.81 23.77C182.3 23.64 183.65 23.63 184.85 23.76C187.83 24.07 190.29 24.82 192.23 26C194.17 27.18 195.62 28.79 196.58 30.82C197.54 32.85 198.02 35.36 198.02 38.35C198.02 43.14 198.02 45.54 198.02 50.33C198.02 52.02 197.63 53.28 196.85 54.1C196.07 54.92 194.97 55.25 193.56 55.07C192.07 54.89 190.94 54.29 190.16 53.28C189.38 52.27 188.99 50.92 188.99 49.22V47.63C189.12 47.98 189.19 48.15 189.32 48.49C189.14 49.69 188.72 50.71 188.07 51.57C187.42 52.42 186.56 53.06 185.51 53.48C184.46 53.9 183.26 54.04 181.91 53.91V53.88Z" fill="#009640"/>
<path d="M214.21 58.14C212.58 57.87 210.95 57.47 209.3 56.93C207.65 56.4 206.14 55.72 204.77 54.89C203.9 54.37 203.28 53.74 202.9 53C202.52 52.26 202.34 51.51 202.36 50.77C202.38 50.03 202.58 49.38 202.96 48.82C203.34 48.26 203.85 47.9 204.48 47.74C205.11 47.58 205.83 47.71 206.62 48.15C208.14 49.01 209.51 49.65 210.72 50.08C211.93 50.51 213.1 50.82 214.22 51C215.56 51.22 216.51 51.18 217.09 50.87C217.67 50.56 217.96 50.07 217.96 49.4C217.96 48.81 217.77 48.32 217.39 47.94C217.01 47.56 216.48 47.25 215.79 47.02C213.38 46.21 212.18 45.81 209.77 45.03C207.53 44.25 205.79 43.08 204.56 41.53C203.33 39.97 202.71 38.08 202.71 35.84C202.71 33.83 203.24 32.17 204.31 30.85C205.38 29.53 206.84 28.6 208.71 28.06C210.57 27.52 212.72 27.45 215.14 27.86C216.77 28.13 218.25 28.53 219.58 29.05C220.92 29.56 222.23 30.26 223.53 31.13C224.29 31.67 224.83 32.3 225.15 33.03C225.47 33.76 225.6 34.48 225.53 35.2C225.46 35.91 225.22 36.54 224.83 37.07C224.43 37.6 223.91 37.93 223.26 38.04C222.61 38.15 221.89 37.95 221.1 37.46C219.92 36.73 218.84 36.17 217.91 35.77C216.97 35.37 216.1 35.1 215.31 34.97C213.79 34.71 212.74 34.76 212.14 35.09C211.54 35.43 211.25 35.95 211.25 36.66C211.25 37.13 211.42 37.57 211.76 37.98C212.1 38.39 212.6 38.71 213.25 38.93C215.66 39.75 216.86 40.17 219.27 41.02C221.62 41.87 223.4 43.07 224.63 44.6C225.86 46.13 226.47 48.02 226.47 50.26C226.47 53.45 225.35 55.7 223.12 57.06C220.89 58.42 217.92 58.76 214.24 58.14H214.21Z" fill="#009640"/>
<path d="M238.05 73.25C237.01 73.02 236.14 72.51 235.44 71.71C234.74 70.91 234.31 69.98 234.15 68.93C233.99 67.87 234.15 66.82 234.61 65.78C236.05 62.66 236.78 61.11 238.22 58.01V62.26C234.54 52.22 232.69 47.22 229 37.25C228.53 35.94 228.38 34.8 228.54 33.83C228.7 32.86 229.18 32.14 229.97 31.67C230.76 31.2 231.84 31.11 233.21 31.39C234.36 31.63 235.28 32.12 235.96 32.86C236.64 33.6 237.29 34.86 237.9 36.64C240.05 43.25 241.13 46.56 243.28 53.19C242.55 53.02 242.18 52.94 241.45 52.77C243.73 47.13 244.87 44.32 247.15 38.71C247.72 37.24 248.38 36.29 249.11 35.88C249.84 35.47 250.84 35.42 252.09 35.74C253.16 36.01 254.02 36.55 254.66 37.34C255.3 38.14 255.71 39.06 255.86 40.1C256.02 41.14 255.83 42.21 255.3 43.29C251.24 52.32 247.2 61.36 243.17 70.4C242.56 71.79 241.85 72.68 241.05 73.07C240.24 73.46 239.25 73.52 238.06 73.26L238.05 73.25Z" fill="#009640"/>
</g>
<defs>
<clipPath id="clip0_26_43">
<rect width="275.6" height="154.91" fill="white"/>
</clipPath>
</defs>
</svg>
